{
    "asset": {
        "generator": "https://3dviewer.net",
        "version": "2.0"
    },
    "scene": 0,
    "scenes": [
        {
            "nodes": [
                0,
                1,
                2,
                3,
                4,
                5,
                6,
                7
            ]
        }
    ],
    "nodes": [
        {
            "mesh": 0
        },
        {
            "mesh": 1
        },
        {
            "mesh": 2
        },
        {
            "mesh": 3
        },
        {
            "mesh": 4
        },
        {
            "mesh": 5
        },
        {
            "mesh": 6
        },
        {
            "mesh": 7
        }
    ],
    "materials": [
        {
            "name": "MDF",
            "pbrMetallicRoughness": {
                "baseColorFactor": [
                    1,
                    1,
                    1,
                    1
                ],
                "baseColorTexture": {
                    "index": 0
                }
            },
            "emissiveFactor": [
                0,
                0,
                0
            ],
            "doubleSided": true,
            "alphaMode": "OPAQUE"
        },
        {
            "name": "FrontColor",
            "pbrMetallicRoughness": {
                "baseColorFactor": [
                    1,
                    1,
                    1,
                    1
                ]
            },
            "emissiveFactor": [
                0,
                0,
                0
            ],
            "doubleSided": true,
            "alphaMode": "OPAQUE"
        },
        {
            "name": "_1",
            "pbrMetallicRoughness": {
                "baseColorFactor": [
                    0.3515325994898463,
                    0.3813260114221238,
                    0.4019777798219466,
                    1
                ]
            },
            "emissiveFactor": [
                0,
                0,
                0
            ],
            "doubleSided": true,
            "alphaMode": "OPAQUE"
        }
    ],
    "meshes": [
        {
            "name": "Mesh1 Group1 Model",
            "primitives": [
                {
                    "attributes": {
                        "POSITION": 1,
                        "NORMAL": 2,
                        "TEXCOORD_0": 3
                    },
                    "mode": 4,
                    "material": 0,
                    "indices": 0
                }
            ]
        },
        {
            "name": "Mesh2 Group2 Model",
            "primitives": [
                {
                    "attributes": {
                        "POSITION": 5,
                        "NORMAL": 6,
                        "TEXCOORD_0": 7
                    },
                    "mode": 4,
                    "material": 0,
                    "indices": 4
                },
                {
                    "attributes": {
                        "POSITION": 9,
                        "NORMAL": 10,
                        "TEXCOORD_0": 11
                    },
                    "mode": 4,
                    "material": 1,
                    "indices": 8
                }
            ]
        },
        {
            "name": "Mesh3 Group3 Model",
            "primitives": [
                {
                    "attributes": {
                        "POSITION": 13,
                        "NORMAL": 14,
                        "TEXCOORD_0": 15
                    },
                    "mode": 4,
                    "material": 0,
                    "indices": 12
                },
                {
                    "attributes": {
                        "POSITION": 17,
                        "NORMAL": 18,
                        "TEXCOORD_0": 19
                    },
                    "mode": 4,
                    "material": 1,
                    "indices": 16
                }
            ]
        },
        {
            "name": "Mesh4 Group4 Model",
            "primitives": [
                {
                    "attributes": {
                        "POSITION": 21,
                        "NORMAL": 22,
                        "TEXCOORD_0": 23
                    },
                    "mode": 4,
                    "material": 0,
                    "indices": 20
                }
            ]
        },
        {
            "name": "Mesh5 Group5 Model",
            "primitives": [
                {
                    "attributes": {
                        "POSITION": 25,
                        "NORMAL": 26,
                        "TEXCOORD_0": 27
                    },
                    "mode": 4,
                    "material": 0,
                    "indices": 24
                }
            ]
        },
        {
            "name": "Mesh6 Group6 Model",
            "primitives": [
                {
                    "attributes": {
                        "POSITION": 29,
                        "NORMAL": 30,
                        "TEXCOORD_0": 31
                    },
                    "mode": 4,
                    "material": 0,
                    "indices": 28
                },
                {
                    "attributes": {
                        "POSITION": 33,
                        "NORMAL": 34,
                        "TEXCOORD_0": 35
                    },
                    "mode": 4,
                    "material": 1,
                    "indices": 32
                }
            ]
        },
        {
            "name": "Mesh7 Group7 Model",
            "primitives": [
                {
                    "attributes": {
                        "POSITION": 37,
                        "NORMAL": 38,
                        "TEXCOORD_0": 39
                    },
                    "mode": 4,
                    "material": 2,
                    "indices": 36
                }
            ]
        },
        {
            "name": "Mesh8 Group8 Model",
            "primitives": [
                {
                    "attributes": {
                        "POSITION": 41,
                        "NORMAL": 42,
                        "TEXCOORD_0": 43
                    },
                    "mode": 4,
                    "material": 0,
                    "indices": 40
                }
            ]
        }
    ],
    "buffers": [
        {
            "uri": "model.bin",
            "byteLength": 8608
        }
    ],
    "bufferViews": [
        {
            "buffer": 0,
            "byteOffset": 0,
            "byteLength": 120,
            "target": 34963
        },
        {
            "buffer": 0,
            "byteOffset": 120,
            "byteLength": 240,
            "target": 34962
        },
        {
            "buffer": 0,
            "byteOffset": 360,
            "byteLength": 240,
            "target": 34962
        },
        {
            "buffer": 0,
            "byteOffset": 600,
            "byteLength": 160,
            "target": 34962
        },
        {
            "buffer": 0,
            "byteOffset": 760,
            "byteLength": 96,
            "target": 34963
        },
        {
            "buffer": 0,
            "byteOffset": 856,
            "byteLength": 96,
            "target": 34962
        },
        {
            "buffer": 0,
            "byteOffset": 952,
            "byteLength": 96,
            "target": 34962
        },
        {
            "buffer": 0,
            "byteOffset": 1048,
            "byteLength": 64,
            "target": 34962
        },
        {
            "buffer": 0,
            "byteOffset": 1112,
            "byteLength": 240,
            "target": 34963
        },
        {
            "buffer": 0,
            "byteOffset": 1352,
            "byteLength": 480,
            "target": 34962
        },
        {
            "buffer": 0,
            "byteOffset": 1832,
            "byteLength": 480,
            "target": 34962
        },
        {
            "buffer": 0,
            "byteOffset": 2312,
            "byteLength": 320,
            "target": 34962
        },
        {
            "buffer": 0,
            "byteOffset": 2632,
            "byteLength": 24,
            "target": 34963
        },
        {
            "buffer": 0,
            "byteOffset": 2656,
            "byteLength": 48,
            "target": 34962
        },
        {
            "buffer": 0,
            "byteOffset": 2704,
            "byteLength": 48,
            "target": 34962
        },
        {
            "buffer": 0,
            "byteOffset": 2752,
            "byteLength": 32,
            "target": 34962
        },
        {
            "buffer": 0,
            "byteOffset": 2784,
            "byteLength": 120,
            "target": 34963
        },
        {
            "buffer": 0,
            "byteOffset": 2904,
            "byteLength": 240,
            "target": 34962
        },
        {
            "buffer": 0,
            "byteOffset": 3144,
            "byteLength": 240,
            "target": 34962
        },
        {
            "buffer": 0,
            "byteOffset": 3384,
            "byteLength": 160,
            "target": 34962
        },
        {
            "buffer": 0,
            "byteOffset": 3544,
            "byteLength": 120,
            "target": 34963
        },
        {
            "buffer": 0,
            "byteOffset": 3664,
            "byteLength": 240,
            "target": 34962
        },
        {
            "buffer": 0,
            "byteOffset": 3904,
            "byteLength": 240,
            "target": 34962
        },
        {
            "buffer": 0,
            "byteOffset": 4144,
            "byteLength": 160,
            "target": 34962
        },
        {
            "buffer": 0,
            "byteOffset": 4304,
            "byteLength": 120,
            "target": 34963
        },
        {
            "buffer": 0,
            "byteOffset": 4424,
            "byteLength": 240,
            "target": 34962
        },
        {
            "buffer": 0,
            "byteOffset": 4664,
            "byteLength": 240,
            "target": 34962
        },
        {
            "buffer": 0,
            "byteOffset": 4904,
            "byteLength": 160,
            "target": 34962
        },
        {
            "buffer": 0,
            "byteOffset": 5064,
            "byteLength": 96,
            "target": 34963
        },
        {
            "buffer": 0,
            "byteOffset": 5160,
            "byteLength": 96,
            "target": 34962
        },
        {
            "buffer": 0,
            "byteOffset": 5256,
            "byteLength": 96,
            "target": 34962
        },
        {
            "buffer": 0,
            "byteOffset": 5352,
            "byteLength": 64,
            "target": 34962
        },
        {
            "buffer": 0,
            "byteOffset": 5416,
            "byteLength": 240,
            "target": 34963
        },
        {
            "buffer": 0,
            "byteOffset": 5656,
            "byteLength": 480,
            "target": 34962
        },
        {
            "buffer": 0,
            "byteOffset": 6136,
            "byteLength": 480,
            "target": 34962
        },
        {
            "buffer": 0,
            "byteOffset": 6616,
            "byteLength": 320,
            "target": 34962
        },
        {
            "buffer": 0,
            "byteOffset": 6936,
            "byteLength": 144,
            "target": 34963
        },
        {
            "buffer": 0,
            "byteOffset": 7080,
            "byteLength": 288,
            "target": 34962
        },
        {
            "buffer": 0,
            "byteOffset": 7368,
            "byteLength": 288,
            "target": 34962
        },
        {
            "buffer": 0,
            "byteOffset": 7656,
            "byteLength": 192,
            "target": 34962
        },
        {
            "buffer": 0,
            "byteOffset": 7848,
            "byteLength": 120,
            "target": 34963
        },
        {
            "buffer": 0,
            "byteOffset": 7968,
            "byteLength": 240,
            "target": 34962
        },
        {
            "buffer": 0,
            "byteOffset": 8208,
            "byteLength": 240,
            "target": 34962
        },
        {
            "buffer": 0,
            "byteOffset": 8448,
            "byteLength": 160,
            "target": 34962
        }
    ],
    "accessors": [
        {
            "bufferView": 0,
            "byteOffset": 0,
            "componentType": 5125,
            "count": 30,
            "type": "SCALAR"
        },
        {
            "bufferView": 1,
            "byteOffset": 0,
            "componentType": 5126,
            "count": 20,
            "min": [
                30,
                151,
                -179
            ],
            "max": [
                32,
                209,
                -150.25
            ],
            "type": "VEC3"
        },
        {
            "bufferView": 2,
            "byteOffset": 0,
            "componentType": 5126,
            "count": 20,
            "type": "VEC3"
        },
        {
            "bufferView": 3,
            "byteOffset": 0,
            "componentType": 5126,
            "count": 20,
            "type": "VEC2"
        },
        {
            "bufferView": 4,
            "byteOffset": 0,
            "componentType": 5125,
            "count": 24,
            "type": "SCALAR"
        },
        {
            "bufferView": 5,
            "byteOffset": 0,
            "componentType": 5126,
            "count": 8,
            "min": [
                60,
                10,
                -180
            ],
            "max": [
                60,
                88,
                -120
            ],
            "type": "VEC3"
        },
        {
            "bufferView": 6,
            "byteOffset": 0,
            "componentType": 5126,
            "count": 8,
            "type": "VEC3"
        },
        {
            "bufferView": 7,
            "byteOffset": 0,
            "componentType": 5126,
            "count": 8,
            "type": "VEC2"
        },
        {
            "bufferView": 8,
            "byteOffset": 0,
            "componentType": 5125,
            "count": 60,
            "type": "SCALAR"
        },
        {
            "bufferView": 9,
            "byteOffset": 0,
            "componentType": 5126,
            "count": 40,
            "min": [
                0,
                10,
                -180
            ],
            "max": [
                60,
                88,
                -120
            ],
            "type": "VEC3"
        },
        {
            "bufferView": 10,
            "byteOffset": 0,
            "componentType": 5126,
            "count": 40,
            "type": "VEC3"
        },
        {
            "bufferView": 11,
            "byteOffset": 0,
            "componentType": 5126,
            "count": 40,
            "type": "VEC2"
        },
        {
            "bufferView": 12,
            "byteOffset": 0,
            "componentType": 5125,
            "count": 6,
            "type": "SCALAR"
        },
        {
            "bufferView": 13,
            "byteOffset": 0,
            "componentType": 5126,
            "count": 4,
            "min": [
                58,
                0,
                -180
            ],
            "max": [
                58,
                10,
                -120
            ],
            "type": "VEC3"
        },
        {
            "bufferView": 14,
            "byteOffset": 0,
            "componentType": 5126,
            "count": 4,
            "type": "VEC3"
        },
        {
            "bufferView": 15,
            "byteOffset": 0,
            "componentType": 5126,
            "count": 4,
            "type": "VEC2"
        },
        {
            "bufferView": 16,
            "byteOffset": 0,
            "componentType": 5125,
            "count": 30,
            "type": "SCALAR"
        },
        {
            "bufferView": 17,
            "byteOffset": 0,
            "componentType": 5126,
            "count": 20,
            "min": [
                0,
                0,
                -180
            ],
            "max": [
                58,
                10,
                -120
            ],
            "type": "VEC3"
        },
        {
            "bufferView": 18,
            "byteOffset": 0,
            "componentType": 5126,
            "count": 20,
            "type": "VEC3"
        },
        {
            "bufferView": 19,
            "byteOffset": 0,
            "componentType": 5126,
            "count": 20,
            "type": "VEC2"
        },
        {
            "bufferView": 20,
            "byteOffset": 0,
            "componentType": 5125,
            "count": 30,
            "type": "SCALAR"
        },
        {
            "bufferView": 21,
            "byteOffset": 0,
            "componentType": 5126,
            "count": 20,
            "min": [
                60,
                11,
                -179
            ],
            "max": [
                62,
                87,
                -150.25
            ],
            "type": "VEC3"
        },
        {
            "bufferView": 22,
            "byteOffset": 0,
            "componentType": 5126,
            "count": 20,
            "type": "VEC3"
        },
        {
            "bufferView": 23,
            "byteOffset": 0,
            "componentType": 5126,
            "count": 20,
            "type": "VEC2"
        },
        {
            "bufferView": 24,
            "byteOffset": 0,
            "componentType": 5125,
            "count": 30,
            "type": "SCALAR"
        },
        {
            "bufferView": 25,
            "byteOffset": 0,
            "componentType": 5126,
            "count": 20,
            "min": [
                30,
                151,
                -149.75
            ],
            "max": [
                32,
                209,
                -121
            ],
            "type": "VEC3"
        },
        {
            "bufferView": 26,
            "byteOffset": 0,
            "componentType": 5126,
            "count": 20,
            "type": "VEC3"
        },
        {
            "bufferView": 27,
            "byteOffset": 0,
            "componentType": 5126,
            "count": 20,
            "type": "VEC2"
        },
        {
            "bufferView": 28,
            "byteOffset": 0,
            "componentType": 5125,
            "count": 24,
            "type": "SCALAR"
        },
        {
            "bufferView": 29,
            "byteOffset": 0,
            "componentType": 5126,
            "count": 8,
            "min": [
                30,
                150,
                -180
            ],
            "max": [
                30,
                210,
                -120
            ],
            "type": "VEC3"
        },
        {
            "bufferView": 30,
            "byteOffset": 0,
            "componentType": 5126,
            "count": 8,
            "type": "VEC3"
        },
        {
            "bufferView": 31,
            "byteOffset": 0,
            "componentType": 5126,
            "count": 8,
            "type": "VEC2"
        },
        {
            "bufferView": 32,
            "byteOffset": 0,
            "componentType": 5125,
            "count": 60,
            "type": "SCALAR"
        },
        {
            "bufferView": 33,
            "byteOffset": 0,
            "componentType": 5126,
            "count": 40,
            "min": [
                0,
                150,
                -180
            ],
            "max": [
                30,
                210,
                -120
            ],
            "type": "VEC3"
        },
        {
            "bufferView": 34,
            "byteOffset": 0,
            "componentType": 5126,
            "count": 40,
            "type": "VEC3"
        },
        {
            "bufferView": 35,
            "byteOffset": 0,
            "componentType": 5126,
            "count": 40,
            "type": "VEC2"
        },
        {
            "bufferView": 36,
            "byteOffset": 0,
            "componentType": 5125,
            "count": 36,
            "type": "SCALAR"
        },
        {
            "bufferView": 37,
            "byteOffset": 0,
            "componentType": 5126,
            "count": 24,
            "min": [
                0,
                88,
                -180
            ],
            "max": [
                62,
                90,
                -120
            ],
            "type": "VEC3"
        },
        {
            "bufferView": 38,
            "byteOffset": 0,
            "componentType": 5126,
            "count": 24,
            "type": "VEC3"
        },
        {
            "bufferView": 39,
            "byteOffset": 0,
            "componentType": 5126,
            "count": 24,
            "type": "VEC2"
        },
        {
            "bufferView": 40,
            "byteOffset": 0,
            "componentType": 5125,
            "count": 30,
            "type": "SCALAR"
        },
        {
            "bufferView": 41,
            "byteOffset": 0,
            "componentType": 5126,
            "count": 20,
            "min": [
                60,
                11,
                -149.75
            ],
            "max": [
                62,
                87,
                -121
            ],
            "type": "VEC3"
        },
        {
            "bufferView": 42,
            "byteOffset": 0,
            "componentType": 5126,
            "count": 20,
            "type": "VEC3"
        },
        {
            "bufferView": 43,
            "byteOffset": 0,
            "componentType": 5126,
            "count": 20,
            "type": "VEC2"
        }
    ],
    "images": [
        {
            "uri": "MDF.jpg"
        }
    ],
    "textures": [
        {
            "source": 0
        }
    ]
}